<svg xmlns="http://www.w3.org/2000/svg" width="113" height="24" viewBox="0 0 113 24">
  <g id="logo-binusmaya" transform="translate(-1362 -1748)">
    <rect id="Rectangle_1234" data-name="Rectangle 1234" width="113" height="24"
      transform="translate(1362 1748)" fill="#fff" opacity="0" />
    <g id="logo-binusmaya-header" transform="translate(1362 1752)">
      <path id="Shape"
        d="M41.923,16.033a6.882,6.882,0,0,1-4.829-1.6,6.9,6.9,0,0,1-1.912-5.3V.215h4.376V9.136c0,2.024.841,3.093,2.431,3.093s2.387-1.041,2.387-3.093V.215h4.375V9.136C48.752,13.584,46.326,16.033,41.923,16.033Zm14.052-.008a12.232,12.232,0,0,1-6.5-1.887l2.072-3.374a9.24,9.24,0,0,0,4.52,1.554c1.5,0,2.007-.252,2.007-1,0-.608-.638-.953-2.624-1.421l-.367-.087A9.021,9.021,0,0,1,51.2,8.167a4.015,4.015,0,0,1-1.269-3.261,4.428,4.428,0,0,1,1.645-3.552A6.939,6.939,0,0,1,56.019,0,10.154,10.154,0,0,1,62.17,1.8L60.1,5.172a7.424,7.424,0,0,0-4.3-1.465c-1.113,0-1.588.285-1.588.954,0,.529.467.8,2.081,1.2l.455.11A10.183,10.183,0,0,1,61,7.749a3.965,3.965,0,0,1,1.345,3.26,4.436,4.436,0,0,1-1.8,3.839A7.776,7.776,0,0,1,55.975,16.026Zm-48.567-.24H0V.249H7.453a6.611,6.611,0,0,1,4.139,1.046,3.546,3.546,0,0,1,1.262,2.994A3.151,3.151,0,0,1,11,7.329a3.621,3.621,0,0,1,1.624,1.288,3.809,3.809,0,0,1,.582,2.153,4.708,4.708,0,0,1-1.445,3.7A6.4,6.4,0,0,1,7.409,15.785ZM4.1,9.372v3.018H7.474a1.4,1.4,0,0,0,1.544-1.531A1.369,1.369,0,0,0,7.5,9.372Zm0-5.726V6.086H7.32c.905,0,1.345-.4,1.345-1.221s-.453-1.22-1.345-1.22ZM24.277,15.752h-4.1V.215h3.77l3.4,4.6c.705.954,2.067,3.008,2.4,3.661-.116-.725-.131-2.95-.132-3.873V.215h4.1V15.751H30.23l-3.682-5.127c-.713-.995-2.016-2.968-2.4-3.64.107.671.128,2.621.132,3.724v5.043Zm-5.563,0H14.348V.215h4.366V15.751Z"
        transform="translate(0 0)" />
      <path id="Shape-2" data-name="Shape"
        d="M32.808,18.213c-.137,0-.253,0-.338-.005l-.083,0-.34.007H31.97a7.559,7.559,0,0,1-3.1-.62,6.387,6.387,0,0,1-3.323-3.521l-.1-.25c-.267-.681-.683-1.874-1.235-3.546l-.749-2.308-1.1-3.219-.084-.263c-.233-.757-.5-1.807-.5-1.817l-.115.5c-.1.432-.257,1.044-.4,1.5l-.028.084-1.1,3.219L18.6,12.795c-.309.874-.634,1.119-1.512,1.137l-.106,0H13.6c-.85,0-1.2-.335-1.3-1.236l-.01-.1-.548-7.95L7.617,12.442,3.658,4.648l-.866,9.524a1.947,1.947,0,0,1-.944,1.588A3.528,3.528,0,0,1,.171,16.2L0,16.2,1.475,0H4.126L7.66,7.343,11.223,0h2.65l.9,11.322c.019.264.143.408.368.429l.061,0h.56a.51.51,0,0,0,.581-.365L20.476,0h2.67l.863,2.629c.97,2.915,2.761,8.184,3.861,10.723a4.422,4.422,0,0,0,4.193,2.577l.076,0v-.006l.1,0h.37l.1,0v.006l.155,0a4.565,4.565,0,0,0,4.113-2.574c1.079-2.486,2.821-7.6,3.763-10.424L41.693,0h2.67l4.114,11.322.894,2.61-.308,0A2.916,2.916,0,0,1,46.03,12.21l-.052-.13-1.207-3.9L43.6,4.749l-.084-.263c-.233-.757-.5-1.807-.5-1.817l-.1.418c-.108.456-.269,1.1-.422,1.578l-.027.084-1.19,3.5c-.145.456-1.435,4.5-1.992,5.826A6.661,6.661,0,0,1,32.808,18.213ZM31.26,14.15h0v-6.3l-3.275-5.2c-.232-.361-.348-.46-.723-.471h-.617L25.941,0h2.1A1.668,1.668,0,0,1,29.8.921l.06.1L31.8,4.273c.258.44.468.849.6,1.115l.126.264h.04l.218-.442c.111-.218.29-.556.506-.932l.114-.2L35.218,1.02A1.647,1.647,0,0,1,36.929,0h2.219l-.694,2.178h-.565a.712.712,0,0,0-.753.4l-.046.07-3.275,5.2,0,3.691a2.34,2.34,0,0,1-1,2,3.67,3.67,0,0,1-1.406.582l-.14.022Z"
        transform="translate(63.629 1.787)" fill="#f8b133" />
    </g>
  </g>
</svg>